<svg id="visual" viewBox="0 0 900 600" width="900" height="600" xmlns="http://www.w3.org/2000/svg" xmlns:xlink="http://www.w3.org/1999/xlink" version="1.1"><path d="M385 0L370.8 12.5C356.7 25 328.3 50 301.3 75C274.3 100 248.7 125 233.7 150C218.7 175 214.3 200 203.5 225C192.7 250 175.3 275 181.2 300C187 325 216 350 235.5 375C255 400 265 425 266 450C267 475 259 500 267.7 525C276.3 550 301.7 575 314.3 587.5L327 600L0 600L0 587.5C0 575 0 550 0 525C0 500 0 475 0 450C0 425 0 400 0 375C0 350 0 325 0 300C0 275 0 250 0 225C0 200 0 175 0 150C0 125 0 100 0 75C0 50 0 25 0 12.5L0 0Z" fill="#ff6f61"></path><path d="M319 0L315.3 12.5C311.7 25 304.3 50 286.5 75C268.7 100 240.3 125 241.8 150C243.3 175 274.7 200 270 225C265.3 250 224.7 275 214 300C203.3 325 222.7 350 226.7 375C230.7 400 219.3 425 220.7 450C222 475 236 500 235 525C234 550 218 575 210 587.5L202 600L0 600L0 587.5C0 575 0 550 0 525C0 500 0 475 0 450C0 425 0 400 0 375C0 350 0 325 0 300C0 275 0 250 0 225C0 200 0 175 0 150C0 125 0 100 0 75C0 50 0 25 0 12.5L0 0Z" fill="#c85c56"></path><path d="M247 0L235 12.5C223 25 199 50 187.2 75C175.3 100 175.7 125 180.2 150C184.7 175 193.3 200 202.7 225C212 250 222 275 212.8 300C203.7 325 175.3 350 175.3 375C175.3 400 203.7 425 214.5 450C225.3 475 218.7 500 205.7 525C192.7 550 173.3 575 163.7 587.5L154 600L0 600L0 587.5C0 575 0 550 0 525C0 500 0 475 0 450C0 425 0 400 0 375C0 350 0 325 0 300C0 275 0 250 0 225C0 200 0 175 0 150C0 125 0 100 0 75C0 50 0 25 0 12.5L0 0Z" fill="#924a48"></path><path d="M88 0L83 12.5C78 25 68 50 62.7 75C57.3 100 56.7 125 74.3 150C92 175 128 200 149.2 225C170.3 250 176.7 275 164.7 300C152.7 325 122.3 350 107.7 375C93 400 94 425 110.8 450C127.7 475 160.3 500 155.2 525C150 550 107 575 85.5 587.5L64 600L0 600L0 587.5C0 575 0 550 0 525C0 500 0 475 0 450C0 425 0 400 0 375C0 350 0 325 0 300C0 275 0 250 0 225C0 200 0 175 0 150C0 125 0 100 0 75C0 50 0 25 0 12.5L0 0Z" fill="#5e3938"></path><path d="M37 0L43 12.5C49 25 61 50 58.8 75C56.7 100 40.3 125 41.2 150C42 175 60 200 68.7 225C77.3 250 76.7 275 84.8 300C93 325 110 350 111.5 375C113 400 99 425 91.8 450C84.7 475 84.3 500 91.3 525C98.3 550 112.7 575 119.8 587.5L127 600L0 600L0 587.5C0 575 0 550 0 525C0 500 0 475 0 450C0 425 0 400 0 375C0 350 0 325 0 300C0 275 0 250 0 225C0 200 0 175 0 150C0 125 0 100 0 75C0 50 0 25 0 12.5L0 0Z" fill="#2c2727"></path></svg>